<?xml version="1.0" standalone="no"?>
<!DOCTYPE svg PUBLIC "-//W3C//DTD SVG 1.1//EN" "http://www.w3.org/Graphics/SVG/1.1/DTD/svg11.dtd" >
<svg xmlns="http://www.w3.org/2000/svg" xmlns:xlink="http://www.w3.org/1999/xlink" version="1.1" viewBox="-10 0 266 256">
   <path fill="currentColor"
d="M126 75q9 -1 23 11q2 5 -2 8q-7 1 -6 7q-1 12 -1 19t1 17q0 16 -1 22q-2 6 -4 6q-3 1 -9 -8q-4 -2 1 -2q7 3 8 -3v-13q-1 2 -5 4q-3 2 -4 2q-11 5 -19 19q-24 37 -49 59q-7 4 -2 -1q27 -24 53 -68q-14 4 -25 11q-23 14 -20 1q0 -2 2 -4q1 0 2 -1q3 -2 2 1q-2 3 2 1
q23 -8 41 -18l1 -1q4 -1 9 -7q2 -3 6 -2q1 1 3 2h3q-1 -5 -1 -15q-2 -23 -1 -39q0 -4 -5 -4q-10 0 -20 4q-6 3 -11 2q-4 1 0 -2q19 -8 28 -8zM100 0q-1 -2 2 -1q1 1 4 2q2 1 4 1q11 4 15 10q30 -5 58 -2q15 5 19 13q3 5 5 9q0 4 -3 5q-2 0 -11 -1q-4 0 -6 -1q-10 0 -17 1
q-8 1 -21 3q-4 0 0 -2q19 -6 39 -9q10 -1 9 -7q-2 -5 -12 -8q-26 -4 -58 2q0 8 2 13q-1 4 -6 4q-5 1 -9 -6q-1 -1 -2 -1q-3 1 0 -4q1 -2 -2 -1q-23 6 -30 10q-1 0 -3 1h-12q-3 0 1 -2q5 -1 14 -4q19 -6 31 -10q-2 -4 -6 -7q-1 -1 -1 -2q-3 -3 -4 -6zM134 33q-1 -1 0 -2
q2 0 3 1q6 12 -4 21q9 -1 24 -7q4 0 7 -4q3 -3 7 -2q8 3 9 3q1 1 1 3q-1 1 -2 1q-5 1 -14 3q2 0 -5 1q-12 4 -30 7q-7 9 -14 14q-5 3 -2 -2l5 -5q2 -3 4 -5l-12 3q-3 1 -4 1v3q2 3 2 4q-2 5 -7 4q-2 0 -3 -3q-2 -2 -2 -3q-16 5 -27 -2q-3 -1 0 -2q12 4 25 -3q-1 -4 -2 -9
q-2 -1 -3 -6q-2 -2 1 -2q5 0 13 15h3q15 -4 19 -6q7 -11 8 -21zM122 168q5 8 2 10q-8 13 -4 28q1 9 15 12t31 2q16 0 42 -5q4 -2 4 -10q-1 -1 -2 -4q-2 -12 -6 -24q-4 -7 2 -2q9 13 18 33q3 7 -4 10q-55 10 -80 4q-24 -2 -25 -18q-2 -14 2 -24q3 -7 3 -12q0 -3 2 0zM97 100
q-1 5 -1 8q9 -3 13 -8q-1 -2 16 -4q3 2 1 5q-7 1 -14 9q-2 3 -3 3t0 -3q-1 -4 -2 -3q-7 3 -11 3q-1 11 1 19q2 0 6 -1q8 -3 9 -5q0 -1 2 -2l1 -1q2 0 6 -1q1 0 2 -1q4 0 3 3q-8 5 -14 11q-4 3 -4 0q4 -4 -11 1q0 3 1 6t2 5q0 3 -1 4q-2 1 -3 -1q-5 -3 -6 -9q-3 -3 0 -7
q2 -4 1 -11v-20q0 -4 -1 -8q-1 -2 2 -1q7 6 5 9zM152 176q10 -2 20 2q7 3 5 11q-3 5 -10 -2q-8 -7 -13 -8q-2 0 -3 -1t1 -2zM58 37q-2 14 4 23q-1 6 -4 5q-5 -3 -6 -9q-4 -11 5 -20q1 -1 1 1z" />
</svg>
