<?xml version="1.0" encoding="UTF-8" standalone="no"?>
<svg
   version="1.1"
   viewBox="-10 0 266 256"
   id="svg4"
   sodipodi:docname="kuan.svg"
   inkscape:version="1.1 (c68e22c387, 2021-05-23)"
   xmlns:inkscape="http://www.inkscape.org/namespaces/inkscape"
   xmlns:sodipodi="http://sodipodi.sourceforge.net/DTD/sodipodi-0.dtd"
   xmlns="http://www.w3.org/2000/svg"
   xmlns:svg="http://www.w3.org/2000/svg">
  <defs
     id="defs8" />
  <sodipodi:namedview
     id="namedview6"
     pagecolor="#ffffff"
     bordercolor="#666666"
     borderopacity="1.0"
     inkscape:pageshadow="2"
     inkscape:pageopacity="0.0"
     inkscape:pagecheckerboard="0"
     showgrid="false"
     inkscape:zoom="4.5022815"
     inkscape:cx="128.2683"
     inkscape:cy="144.59336"
     inkscape:window-width="1920"
     inkscape:window-height="1001"
     inkscape:window-x="-9"
     inkscape:window-y="-9"
     inkscape:window-maximized="1"
     inkscape:current-layer="layer2" />
  <g
     inkscape:groupmode="layer"
     id="layer2"
     inkscape:label="Layer 2">
    <path
       style="fill:none;stroke:#000000;stroke-width:1px;stroke-linecap:butt;stroke-linejoin:miter;stroke-opacity:1"
       d="m 106,1 c -0.16767,1.0733609 -0.41464,2.1373044 -0.503,3.2200827 -0.009,0.1043566 0.17528,0.12846 0.22211,0.2221096 0.47568,0.9513681 0.87646,1.7678937 1.77688,2.4432058 0.13244,0.09933 0.34488,0.089669 0.44422,0.2221096 0.14047,0.1872992 0.086,0.4758142 0.22211,0.6663288 0.4714,0.6599605 2.85225,2.6418705 3.55375,3.1095345 0.26022,0.173479 0.85514,0.188812 1.11055,0.444219 0.52651,0.526509 1.09818,1.324418 1.77687,1.776877 0.29663,0.19775 0.8608,0.416582 1.11055,0.666329 0.11128,0.111277 0.29861,0.520718 0.44422,0.666329 0.27065,0.270645 0.8399,0.395684 1.11055,0.666329 0.0524,0.05235 -0.0524,0.169758 0,0.222109 0.37812,0.378117 0.77236,0.381165 1.11055,0.888439 0.0821,0.123204 -0.10471,0.339516 0,0.444219 0.53946,0.53946 0.32615,-0.06605 0.66633,0.444219 0.38198,0.572982 0.44089,1.435394 0.66633,1.998987 0.18919,0.472985 0.6676,0.890999 0.88843,1.332658 0.11846,0.236916 -0.11845,0.651521 0,0.888438 0.0198,0.03963 0.63363,0.411516 0.66633,0.444219 0.11586,0.115861 -0.0774,0.772343 0,0.888439 0.0918,0.137746 0.35239,0.08436 0.44422,0.222109 0.0774,0.116096 -0.11586,0.772578 0,0.888439 0.0523,0.05235 0.16976,-0.05235 0.22211,0 0.10267,0.102673 -0.067,0.532225 0,0.666329 0.21654,0.433071 0.44422,1.038692 0.44422,1.554767"
       id="path65" />
    <path
       style="fill:none;stroke:#000000;stroke-width:1px;stroke-linecap:butt;stroke-linejoin:miter;stroke-opacity:1"
       d="m 58,37 c -0.751851,1.28939 -1.563783,2.545574 -2.255554,3.868169 -0.205883,0.393628 0.04906,0.891156 0,1.332658 -0.08683,0.781476 -0.290973,1.676973 -0.444219,2.443206 -0.302185,1.510925 -0.428218,3.077531 -1.110548,4.442192 -0.123837,0.247673 -0.142511,3.205819 0,3.775863 0.0967,0.386795 0.366028,0.719592 0.444219,1.110548 0.141244,0.706223 -0.174425,1.523396 0,2.221097 -0.133872,0.402005 0.359804,0.413084 0.444219,0.666328 0.117062,0.351187 -0.08978,0.751418 0,1.110548 0.07589,0.303582 0.335498,0.335499 0.444219,0.44422 0.09307,0.09307 0.154804,0.531717 0.22211,0.666329 0.222773,0.445545 0.802695,0.580585 1.110548,0.888438 C 58.089694,61.204296 57.983535,63.551455 58,65"
       id="path67" />
    <path
       style="fill:none;stroke:#000000;stroke-width:1px;stroke-linecap:butt;stroke-linejoin:miter;stroke-opacity:1"
       d="m 70.403681,29.984798 c 0.444219,-0.07404 0.883866,-0.18471 1.332657,-0.22211 0.442685,-0.03689 0.891156,0.04906 1.332658,0 1.285624,-0.142847 2.429093,-1.214546 3.553754,-1.776877 0.198661,-0.09933 0.455617,0.07024 0.666329,0 0.483868,0.08302 0.07404,-0.370182 0.222109,-0.444219 0.337659,-0.168829 0.77289,-0.05328 1.110548,-0.222109 0.765573,-0.382787 0.646178,-0.628842 1.554768,-0.888439 0.213563,-0.06102 0.444219,0 0.666328,0 0.296147,-0.07404 0.596052,-0.134394 0.888439,-0.222109 3.033641,-0.910093 6.190687,-1.580598 9.328599,-1.998987 0.44033,-0.05871 0.89449,0.07303 1.33266,0 0.93343,-0.155571 1.55989,-0.623444 2.44321,-0.888438 1.00721,-0.302164 2.09827,-0.377397 3.10953,-0.666329 0.86552,-0.24729 1.63332,-0.840584 2.44321,-1.110548 0.21071,-0.07024 0.4601,0.08249 0.66633,0 0.4972,-0.198881 1.14564,-1.040427 1.55476,-1.332658 0.7285,-0.520355 1.69958,-0.664368 2.44321,-1.110548 0.17957,-0.107739 0.25692,-0.35057 0.44422,-0.444219 0.98528,-0.492642 3.30312,-1.27 4.44219,-1.554768 0.74202,-0.185505 1.7346,-0.208015 2.44321,-0.444219 0.49002,-0.163342 1.20536,-0.552026 1.77687,-0.666329 0.43188,-0.08638 1.15168,0.115168 1.55477,0 0.25667,-0.07333 0.41309,-0.359804 0.66633,-0.444219 0.27764,-0.09255 0.80206,0.0617 1.11055,0 0.86589,-0.173178 2.0811,-0.397554 2.88742,-0.666329 0.58614,-0.19538 1.15945,-0.682629 1.77688,-0.888438 1.58418,-0.528061 0.18693,0.005 1.77688,-0.22211 2.0472,-0.292457 3.97745,-1.218183 5.99696,-1.554767 0.92206,-0.153678 1.98291,0.226128 2.88742,0 2.02412,-0.506029 0.18646,-0.440258 2.2211,-0.666329 1.19939,-0.133266 0.66633,0.166582 1.99898,0 0.66852,-0.08356 1.37079,-0.234818 1.99899,-0.444219 0.66749,-0.222496 2.91941,-0.09976 3.77586,-0.22211 0.5624,0.02103 1.02311,-0.355609 1.55477,-0.444219 0.94193,-0.156989 2.51618,0 3.33165,0 3.12982,0 6.43456,0.311615 9.55071,0 0.39185,-0.03918 1.94694,-0.05669 2.44321,-0.22211 0.0993,-0.03311 0.12053,-0.196715 0.22211,-0.2221093 1.32517,-0.3312948 4.75147,0 6.21906,0 4.19182,0 8.35084,-0.1511311 12.43814,0.6663293 0.63323,0.126644 1.36379,-0.09074 1.99899,0 3.73917,0.534166 6.55121,0.721344 9.99493,2.443205 0.23678,0.118391 0.66653,-0.147937 0.88844,0 0.13775,0.09183 0.074,0.370183 0.22211,0.44422 0.19866,0.09933 0.46767,-0.09933 0.66633,0 0.28095,0.140474 0.40497,0.492091 0.66633,0.666328 0.26022,0.173479 0.85514,0.188812 1.11055,0.44422 0.41702,0.417023 0.56915,0.839851 1.11054,1.110548 0.13244,0.06622 0.31178,-0.06622 0.44422,0 0.24478,0.122389 0.4343,0.656402 0.66633,0.888438 0.61409,0.614084 0.63663,0.424421 1.33266,0.888439 0.0616,0.04107 -0.0444,0.16288 0,0.222109 0.60074,0.800985 1.26024,1.668254 1.77688,2.443206 0.30521,0.457822 0.69763,0.284725 0.88844,0.666329 0.0891,0.178226 -0.0743,0.480537 0,0.666329 0.32442,0.811056 0.83465,1.615521 1.11054,2.443205 0.14187,0.42561 0.0234,1.157347 0.22211,1.554768 0.28214,0.564279 0.26546,-0.227467 0.44422,0.666329 0.0871,0.435592 -0.10774,0.901701 0,1.332657 0.0648,0.258973 0.35981,0.413085 0.44422,0.666329 0.24432,0.732962 -0.24432,1.710244 0,2.443206 0.22596,0.677878 0.22211,1.025571 0.22211,1.776877 0,0.148073 0.1047,0.339516 0,0.444219 -1.12885,1.128846 -4.54464,0.597976 -5.99696,0.888438 -1.19183,0.238366 -2.3469,0.07125 -3.55375,0.22211 -1.39033,0.173791 -2.81643,0.327248 -4.22009,0.444219 -1.36788,0.113991 -2.85801,-0.194581 -4.22008,0 -2.62839,0.375485 -5.40879,0.513513 -7.99594,1.110548 -1.7412,0.401815 -3.53781,0.947565 -5.33063,1.110548 -1.60347,0.14577 -3.27616,0.22211 -4.88642,0.22211 -0.96952,0 -2.14564,-0.137699 -3.10953,0 -0.76248,0.108925 -1.43792,0.22211 -2.2211,0.22211"
       id="path69" />
    <path
       style="fill:none;stroke:#000000;stroke-width:1px;stroke-linecap:butt;stroke-linejoin:miter;stroke-opacity:1"
       d="m 70,67 c 10.21775,1.55117 20.54286,-0.466037 30.61059,-2.143992 1.74612,-0.291021 3.65564,-0.774328 5.33063,-1.332658 0.31411,-0.104704 0.56522,-0.372393 0.88844,-0.444219 0.29985,-0.06663 1.62584,0.05331 1.99898,0 1.35286,-0.193266 2.21366,-1.245514 3.55376,-1.554768 1.63604,-0.377548 3.233,-0.528544 4.88641,-0.666329 2.11718,-0.176431 0.17238,-0.215893 1.99899,-0.444219 0.29386,-0.03673 0.60368,0.08136 0.88843,0 0.25668,-0.07334 0.42097,-0.339065 0.66633,-0.444219 1.0052,-0.4308 2.27635,-0.822739 3.33165,-1.110548 1.90318,-0.51905 3.86782,-0.855902 5.77485,-1.332658 1.23416,-0.308539 2.36137,-0.974942 3.55375,-1.332657 1.87607,-0.562822 3.87144,-0.320255 5.77485,-0.666329 1.22156,-0.222102 2.36723,-0.912794 3.55375,-1.110548 1.20304,-0.200507 2.55474,-0.08643 3.77587,-0.22211 1.02222,-0.11358 1.9148,-0.645283 2.88742,-0.888438 1.56513,-0.391283 3.28755,-0.568667 4.88641,-0.888439 1.56414,-0.312828 4.39049,-1.168369 5.77485,-1.998986 1.28444,-0.770662 -0.31478,-0.18504 0.88844,-0.666329 0.30052,-0.457692 0.75241,-0.10273 1.11055,-0.22211 0.29615,-0.148073 0.59229,-0.296146 0.88844,-0.444219 0.074,-0.07404 0.12846,-0.175285 0.22211,-0.22211 0.19866,-0.09933 0.46767,0.09933 0.66633,0 0.1873,-0.09365 0.27669,-0.318575 0.44422,-0.444219 0.69093,-0.5182 1.84879,-0.516131 2.4432,-1.110548 0.0524,-0.05235 -0.0523,-0.169758 0,-0.22211 0.10471,-0.104703 0.31178,0.06622 0.44422,0 0.2434,-0.121698 0.64504,-0.322521 0.88844,-0.444219 0.92437,-0.462183 -0.23744,0.01533 0.22211,-0.444219 0.11106,-0.111055 0.55527,0.111055 0.66633,0 0.0523,-0.05235 -0.0662,-0.189 0,-0.22211 0.13244,-0.06622 0.31178,0.06622 0.44422,0 0.0662,-0.03311 -0.0331,-0.155889 0,-0.222109 0.20983,-0.419667 0.66633,-0.202748 0.66633,-0.666329"
       id="path71" />
    <path
       style="fill:none;stroke:#000000;stroke-width:1px;stroke-linecap:butt;stroke-linejoin:miter;stroke-opacity:1"
       d="m 90,47 c 0.87155,0.02908 1.75548,-0.06204 2.61464,0.08724 0.47848,0.08313 0.83799,1.474044 0.88844,1.554768 -1.00834,1.266652 0.75928,0.53717 0.88844,0.666328 1.07516,1.075158 -0.48165,-0.167201 0.22211,0.888439 0.0918,0.137746 0.32716,0.105048 0.44422,0.22211 0.69428,0.694279 0.86647,1.849495 1.33266,2.665315 0.44952,0.786662 0.93065,1.417089 1.33265,2.221096 0.16555,0.331102 0.66633,0.370183 0.88844,0.666329 0.0889,0.118458 -0.1047,0.339516 0,0.444219 0.10471,0.104704 0.36208,-0.123204 0.44422,0 0.12321,0.184807 -0.0539,0.450851 0,0.666329 0.18774,0.750939 1.36037,2.415351 1.77688,3.109535 0.36637,0.610617 0.46618,1.435972 0.88844,1.998986 0.68006,0.906752 1.34921,2.040384 1.77687,3.109535 0.34905,0.872606 0.22024,1.991498 0.44422,2.887425 0.25709,1.028367 0.66633,2.235117 0.66633,3.331644 0,0.252906 0.39222,0.248396 0.22211,0.444219 C 103.92321,73.008161 102.94356,73.987838 102,75"
       id="path73" />
    <path
       style="fill:none;stroke:#000000;stroke-width:1px;stroke-linecap:butt;stroke-linejoin:miter;stroke-opacity:1"
       d="m 137,32 c -0.36962,2.95982 0.53186,6.085242 0.25867,9.090279 -0.0683,0.751926 -0.36084,1.470686 -0.44421,2.221096 -0.0327,0.294335 0.0718,0.601134 0,0.888438 -0.1236,0.494371 -1.07542,2.6808 -1.33266,3.109535 -0.10774,0.179565 -0.378,0.245558 -0.44422,0.444219 -0.0936,0.280949 0.0936,0.60749 0,0.888439 -0.0662,0.198661 -0.35057,0.25692 -0.44422,0.444219 -0.0662,0.13244 0.0662,0.311779 0,0.444219 -0.29151,0.583009 -0.85196,1.13041 -1.11055,1.776877 -0.25578,0.639455 -0.33297,1.887741 -0.88844,2.443206 -0.0523,0.05235 -0.14807,0 -0.22211,0 -0.22211,0.370182 -0.47326,0.724421 -0.66633,1.110548 -0.28466,0.569335 -0.4752,1.807861 -0.88843,2.221096 -0.0524,0.05235 -0.14808,0 -0.22211,0 -0.14808,0.148073 -0.35057,0.25692 -0.44422,0.444219 -0.44527,0.890543 0.73441,0.0045 -0.44422,0.888439 -0.13244,0.09933 -0.34489,0.08967 -0.44422,0.222109 -0.14048,0.1873 -0.0816,0.47903 -0.22211,0.666329 -0.0993,0.132441 -0.32716,0.105048 -0.44422,0.22211 -0.39722,0.397217 -1.63643,1.959796 -1.99899,2.443206 -0.3148,0.419731 -0.50492,0.94914 -0.88844,1.332657 -0.11706,0.117062 -0.37018,0.07404 -0.44421,0.22211 -0.0993,0.198661 0.0825,0.460105 0,0.666329 -0.16256,0.406398 -1.47463,1.043759 -1.55477,1.110548 -0.32105,0.267537 -2.11055,3.054262 -2.2211,3.109534 -0.13244,0.06622 -0.32101,-0.08214 -0.44422,0 -0.81157,0.541052 0.23815,0.325145 -0.44422,0.666329 -0.1341,0.06705 -0.56365,-0.102673 -0.66633,0 -0.26796,0.267962 -0.83328,0.962979 -1.11054,1.332658 -0.14048,0.187299 -0.0566,0.500778 -0.22211,0.666329 -0.1279,0.127892 -0.68615,0.14864 -0.88844,0.222109 C 117.1329,71.507879 116.57101,71.765729 116,72"
       id="path75" />
    <path
       style="fill:none;stroke:#000000;stroke-width:1px;stroke-linecap:butt;stroke-linejoin:miter;stroke-opacity:1"
       d="m 92,91 c 0.56764,3.040028 2.03807,3.981778 2.61363,6.284011 0.34541,1.381628 0,3.223049 0,4.664299 0,2.81339 0,5.62678 0,8.44017 0,1.29496 -0.16035,2.71514 0,3.99797 0.22832,1.82661 0.26779,-0.11819 0.44422,1.99899 0.1684,2.02088 -0.43009,4.72789 0,6.66329 0.0579,0.26058 0.37088,0.40965 0.44422,0.66633 0.42155,1.47543 -0.19094,3.35891 0,4.88641 0.34699,2.77597 0.22211,5.6231 0.22211,8.44016 0,3.35111 0.0658,6.60386 0.27582,9.95837"
       id="path77" />
    <path
       style="fill:none;stroke:#000000;stroke-width:1px;stroke-linecap:butt;stroke-linejoin:miter;stroke-opacity:1"
       d="m 98,85 c 1.01827,-0.273485 2.02901,-0.576703 3.05481,-0.820456 3.43597,-0.816468 -1.58978,0.900108 4.44219,-1.110548 5.68874,-1.896247 -0.12301,-0.01936 3.33164,-1.554767 0.27895,-0.123978 0.60786,-0.101862 0.88844,-0.22211 0.24536,-0.105154 0.41848,-0.345079 0.66633,-0.444219 0.13748,-0.05499 0.31178,0.06622 0.44422,0 0.1873,-0.09365 0.25692,-0.35057 0.44422,-0.444219 0.3319,-0.165951 0.97815,-0.0932 1.33266,-0.22211 0.68527,-0.249191 1.29944,-0.68269 1.99898,-0.888439 1.80203,-0.530008 1.88999,0.02934 3.77587,-0.222109 0.46414,-0.06189 0.8735,-0.352388 1.33266,-0.444219 0.79858,-0.159718 1.63827,0.123835 2.4432,0 0.4628,-0.0712 0.88844,-0.296147 1.33266,-0.44422 0.66633,0 1.33413,0.04432 1.99899,0 1.01697,-0.0678 1.55306,-0.4883 2.4432,-0.666328 0.85393,-0.170786 6.83558,0.172286 7.10751,0.444219 0.0524,0.05235 -0.0523,0.169758 0,0.222109 0.1047,0.104704 0.33951,-0.104703 0.44422,0 0.11706,0.117062 0.10505,0.327158 0.22211,0.44422 0.57002,0.570018 1.44113,0.99691 1.99898,1.554767 0.21586,0.215852 0.039,0.64423 0.22211,0.888438 0.0993,0.132441 0.3408,0.09284 0.44422,0.22211 0.13259,0.165731 1.04904,1.530819 1.11055,1.776877 0.0718,0.287304 -0.0718,0.601134 0,0.888438 0.0967,0.386795 0.34752,0.723754 0.44422,1.110548 0.48302,1.932099 -0.30848,4.207695 -0.66633,5.99696 -0.19392,0.969607 0,2.355672 0,3.331644 0,0.931467 -0.51131,4.018812 -0.22211,4.886412 0.38491,1.154732 0.3273,2.489762 0.44422,3.775862 0.32057,3.52629 0.0936,-1.25009 0.44422,1.55477 0.10335,0.82681 0.0861,1.62709 0.22211,2.4432 0.23677,1.42063 0.27207,-0.1667 0.44422,1.55477 0.18102,1.81017 0,3.72931 0,5.55274 0,1.50776 0.18673,3.17047 0,4.6643 -0.2517,2.01356 -0.71909,3.96481 -0.88844,5.99696 -0.15137,1.81648 0,3.7291 0,5.55274 0,3.70183 0,7.40366 0,11.10548 0,1.10662 0.3437,4.74376 0,5.77485 -0.48366,1.45098 -1.14944,3.26511 -1.55477,4.88642 -0.16375,0.65501 -0.0796,1.35789 -0.22211,1.99898 -0.11628,0.52329 -1.20981,3.20881 -1.55476,3.55376 -0.10471,0.1047 -0.33952,-0.10471 -0.44422,0 -0.10471,0.1047 0.0662,0.31178 0,0.44422 -0.0331,0.0662 -0.14808,0 -0.22211,0 -0.074,0.074 -0.189,0.12277 -0.22211,0.22211 -0.0468,0.14047 0.0662,0.31177 0,0.44421 -0.0331,0.0662 -0.16051,-0.0411 -0.22211,0 -0.17424,0.11616 -0.31341,0.2807 -0.44422,0.44422 -0.26968,0.33711 -0.36107,0.80529 -0.66633,1.11055 -0.11105,0.11106 -0.55527,-0.11105 -0.66633,0 -0.0523,0.0524 0.0523,0.16976 0,0.22211 -0.13131,0.13131 -1.61324,0.0654 -1.77688,0 -0.65483,-0.26193 -0.75833,-0.75833 -1.11054,-1.11055 -0.17512,-0.17512 -0.72083,-0.0932 -0.88844,-0.22211 C 128.77643,158.53698 127.90232,157.75086 127,157"
       id="path79" />
    <path
       style="fill:none;stroke:#000000;stroke-width:1px;stroke-linecap:butt;stroke-linejoin:miter;stroke-opacity:1"
       d="m 96,110 c 2.66892,-0.82668 4.76587,-2.69068 7.2759,-3.8316 1.22038,-0.55472 2.53187,-0.86616 3.77587,-1.33266 0.31002,-0.11626 0.56722,-0.36392 0.88844,-0.44422 0.2873,-0.0718 0.60748,0.0936 0.88843,0 0.40955,-0.13652 0.701,-0.52981 1.11055,-0.66633 0.28095,-0.0936 0.59229,0 0.88844,0 0.29615,-0.14807 0.57433,-0.33952 0.88844,-0.44422 0.31172,-0.10391 0.81804,0.14625 1.11055,0 1.30883,-0.65442 2.75805,-1.41137 4.22008,-1.77688 1.18288,-0.29572 2.45724,-0.56229 3.55375,-1.11054 0.29615,-0.14808 0.65432,-0.678347 0.88844,-0.444223 0.33498,0.334973 -1.89518,2.274213 -2.22109,2.665313 -0.74433,0.89319 -1.45243,1.74291 -2.2211,2.66532 -0.27637,0.33164 -0.36107,0.80529 -0.66633,1.11055 -0.45955,0.45955 0.018,-0.70226 -0.44422,0.22211 -0.0662,0.13244 0.10471,0.33951 0,0.44421 -0.80839,0.8084 -0.15606,-0.23613 -0.66633,0.44422 -0.16016,0.21356 -0.23577,0.49957 -0.44422,0.66633 -0.18282,0.14626 -0.47903,0.0816 -0.66633,0.22211 -0.13244,0.0993 -0.10504,0.32716 -0.2221,0.44422 -0.10471,0.1047 -0.33952,-0.1047 -0.44422,0 -0.0524,0.0524 0,0.14807 0,0.22211 C 112.9953,109.37055 112.49765,109.68527 112,110"
       id="path81" />
    <path
       style="fill:none;stroke:#000000;stroke-width:1px;stroke-linecap:butt;stroke-linejoin:miter;stroke-opacity:1"
       d="m 97,129 c 0.75931,0.31137 1.4577,0.96098 2.27793,0.93412 0.61815,-0.0202 3.85323,-1.473 4.88641,-1.77687 0.65485,-0.1926 1.34659,-0.24348 1.99899,-0.44422 0.60245,-0.18537 1.1601,-0.73425 1.77688,-0.88844 0.63441,-0.1586 1.37306,-0.16603 1.99898,-0.44422 1.62775,-0.72344 3.23901,-1.51507 4.88641,-2.2211 0.91516,-0.3922 1.4967,-1.14335 2.44321,-1.33265 0.36299,-0.0726 0.84879,-0.26176 1.11055,0 0.25319,0.25319 -0.1179,2.5611 -0.44422,2.88742 -0.10471,0.10471 -0.35538,-0.11846 -0.44422,0 -0.19866,0.26488 -0.24556,0.62356 -0.44422,0.88844 -0.74625,0.995 -2.33068,1.77393 -2.88743,2.88743 -0.0662,0.13244 0.10471,0.33951 0,0.44421 -0.0524,0.0524 -0.16975,-0.0524 -0.2221,0 C 113.30418,130.56711 112.65936,131.27386 112,132"
       id="path83" />
    <path
       style="fill:none;stroke:#000000;stroke-width:1px;stroke-linecap:butt;stroke-linejoin:miter;stroke-opacity:1"
       d="m 73,163 c -0.199111,1.26811 -0.545712,2.52172 -0.597333,3.80432 -0.01191,0.29591 0.60749,0.0936 0.888439,0 1.185944,-0.39531 0.903211,-0.7244 2.221096,-1.33266 0.8503,-0.39244 1.809534,-0.50809 2.665315,-0.88844 2.049047,-0.91068 3.995387,-2.10874 5.99696,-3.10953 0.929059,-0.46453 1.959459,-0.69812 2.887425,-1.11055 0.394495,-0.17533 0.709721,-0.506 1.110548,-0.66633 0.350512,-0.1402 0.748955,-0.11363 1.110548,-0.22211 1.077622,-0.32328 2.325282,-0.82948 3.331642,-1.33265 1.05975,-0.52988 1.95392,-1.20809 3.10954,-1.55477 1.19239,-0.35772 2.38954,-0.62546 3.55375,-1.11055 0.79699,-0.33208 1.41944,-1.012 2.2211,-1.33266 1.13321,-0.45328 2.58666,-0.342 3.77586,-0.66633 0.44422,-0.14807 0.88844,-0.29614 1.33266,-0.44422 0.22211,0 0.45085,0.0539 0.66633,0 0.77359,-0.19339 1.45179,-0.67862 2.22109,-0.88843 1.67627,-0.45717 3.4681,-0.7175 5.10852,-1.33266 0.69411,-0.26029 1.25895,-0.74043 1.99899,-0.88844 0.2178,-0.0436 0.46767,0.0993 0.66633,0 1.34673,-0.67337 2.69389,-1.56906 3.99797,-2.2211 0.96713,-0.48356 1.17617,-1.27813 1.77688,-1.99898 0.17089,-0.20507 0.46365,-0.2705 0.66633,-0.44422 0.29614,-0.29615 0.59229,-0.59229 0.88844,-0.88844 0,-0.074 -0.0331,-0.15589 0,-0.22211 0.17009,-0.34018 0.3958,-0.17369 0.66633,-0.44422 0.23412,-0.23412 0.21009,-0.65431 0.44421,-0.88844 0.11106,-0.11105 0.55528,0.11106 0.66633,0 0.10471,-0.1047 -0.1047,-0.33951 0,-0.44422 0.11707,-0.11706 0.32716,-0.10504 0.44422,-0.22211 0.0523,-0.0523 -0.005,-0.29599 0,-0.22211 0.0648,1.0237 0.12032,2.04797 0.18048,3.07196"
       id="path85" />
    <path
       style="fill:none;stroke:#000000;stroke-width:1px;stroke-linecap:butt;stroke-linejoin:miter;stroke-opacity:1"
       d="m 124.59843,144.37125 c -1.43355,0.26573 -2.84968,1.01135 -3.99798,1.77688 -0.7378,0.49187 -1.7699,1.99201 -2.4432,2.66531 -0.26176,0.26176 -0.62668,0.40457 -0.88844,0.66633 -0.9883,0.9883 -1.72597,2.28793 -2.66532,3.33164 -0.35021,0.38913 -0.7754,0.70838 -1.11054,1.11055 -0.94602,1.13522 -1.79145,3.34622 -2.66532,4.22009 -0.18876,0.18875 -0.49957,0.23577 -0.66633,0.44421 -0.29251,0.36565 -0.15171,0.96702 -0.44422,1.33266 -0.16676,0.20845 -0.51117,0.227 -0.66633,0.44422 -0.23174,0.32444 -0.23016,0.77418 -0.44422,1.11055 -0.31044,0.48784 -0.74036,0.88844 -1.11054,1.33266 -0.37019,0.51825 -0.77676,1.01236 -1.11055,1.55476 -0.2603,0.42298 -0.38152,0.92579 -0.66633,1.33266 -2.27314,3.24735 0.10615,-0.84324 -1.33266,1.55477 -1.25984,2.09973 -2.45784,4.2939 -3.99797,6.21907 -0.24679,0.30848 -0.92546,0.83291 -1.11055,1.11055 -0.92999,1.39499 -1.6245,2.86702 -2.66531,4.22008 -0.3065,1.16983 -1.56702,1.4035 -2.2211,2.2211 -0.31026,0.38782 -0.4108,0.90678 -0.66633,1.33265 -0.23889,0.39815 -1.34673,1.71294 -1.55477,1.99899 -0.82504,0.7058 -0.96493,1.8227 -1.55476,2.66532 -0.804395,1.14913 -1.89915,2.12766 -2.66532,3.33164 -1.269729,1.99529 0.0011,0.72043 -1.554767,2.66532 -0.755392,0.94424 -1.842178,1.58346 -2.443206,2.66531 -0.796551,1.43379 -1.46448,2.79714 -2.665315,3.99797 -0.899604,0.89961 -2.21746,1.77082 -2.887425,2.88743 -0.240912,0.40152 -0.175697,0.94905 -0.44422,1.33266 -0.271858,0.38837 -0.775333,0.55322 -1.110548,0.88843 -0.261758,0.26176 -0.422561,0.60985 -0.666328,0.88844 -0.97968,1.11964 -2.134861,1.97242 -3.109535,3.10954 -0.604396,0.70513 -1.442208,1.25661 -1.998987,1.99898 -0.259022,0.34537 -0.375933,0.79112 -0.666328,1.11055 -1.753125,1.92844 -1.265437,0.76676 -3.109535,2.44321 -0.430555,0.39141 -0.813268,1.16522 -1.332658,1.55477 -0.549208,0.4119 -1.119331,0.75207 -1.554767,1.33265 -0.09933,0.13244 -0.08436,0.35239 -0.22211,0.44422 -0.123204,0.0821 -0.311778,-0.0662 -0.444219,0 -0.630521,0.31526 -1.231902,1.11879 -1.776877,1.55477 -0.258547,0.20684 -0.654314,0.21009 -0.888438,0.44422 -0.289287,0.28929 -0.53528,0.91879 -1.110548,1.11055 -0.365411,0.1218 -0.70448,0.22211 -1.110548,0.22211 -0.148074,0 -0.471012,-0.14563 -0.44422,0 C 58.535587,221.68298 58.803254,222.33302 59,223"
       id="path87" />
    <path
       style="fill:none;stroke:#000000;stroke-width:1px;stroke-linecap:butt;stroke-linejoin:miter;stroke-opacity:1"
       d="m 122,168 c 0.42578,2.42244 0.80665,4.98002 0.59944,7.4666 -0.0991,1.18871 -0.64715,2.20562 -0.88844,3.33164 -0.14047,0.65555 -0.084,1.34294 -0.22211,1.99899 -0.36072,1.71342 -1.31859,2.8171 -1.55477,3.99797 -0.12956,0.64782 0.17276,0.86376 0,1.55477 -0.0803,0.32121 -0.36391,0.56722 -0.44421,0.88844 -0.23619,0.94472 -0.23298,1.93681 -0.44422,2.88742 -0.0662,0.29799 -0.14808,0.59229 -0.22211,0.88844 -0.14808,0.29614 -0.36392,0.56722 -0.44422,0.88844 -0.0718,0.2873 0.0419,0.59527 0,0.88844 -0.0331,0.23177 -0.14808,0.44421 -0.22211,0.66632 -0.074,0.37019 -0.18455,0.73491 -0.22211,1.11055 -0.19273,1.92732 -0.36981,3.84745 -0.66633,5.77485 -0.51522,3.34895 -1.26121,8.21417 0.66633,11.10548 0.12987,0.19481 0.0566,0.50078 0.22211,0.66633 0.0523,0.0524 0.16976,-0.0523 0.22211,0 1.13506,1.13507 -0.9313,-0.30978 0.66633,0.88844 0.39732,0.29799 0.92851,0.37766 1.33265,0.66633 0.25561,0.18257 0.37762,0.54259 0.66633,0.66633 0.2722,0.11666 0.60749,-0.0936 0.88844,0 0.40955,0.13651 0.71754,0.48769 1.11055,0.66633 0.93878,0.42671 1.89589,0.82725 2.88742,1.11055 0.86604,0.24743 1.78607,0.24883 2.66532,0.44421 0.75456,0.16768 1.4606,0.52806 2.2211,0.66633 0.94695,0.17218 1.92708,-0.064 2.88742,0 1.04472,0.0696 2.06482,0.37457 3.10954,0.44422 2.43753,0.1625 4.92902,-0.21436 7.32961,0.22211 1.57073,0.28559 3.05257,0.74192 4.6643,0.88844 0.32577,0.0296 1.75837,-0.037 1.99899,0 0.60342,0.0928 1.17565,0.33812 1.77688,0.44422 0.59622,0.10522 3.11084,0.30171 3.77586,0.44422 1.74844,0.37467 0.82703,0.50471 2.44321,0.66633 1.44208,0.14421 2.99587,0 4.44219,0 4.1809,0 8.48645,0.27825 12.66025,0 1.29266,-0.0862 2.477,-0.22211 3.77586,-0.22211 3.47972,0 6.95944,0 10.43915,0 1.44153,0 4.56405,0.31842 5.99696,0 1.26337,-0.28075 0.45729,-0.52915 1.55477,-0.66633 0.36732,-0.0459 0.76394,0.12998 1.11055,0 0.29411,-0.11029 0.3936,-0.51049 0.66633,-0.66633 0.957,-0.54686 0.79538,0.0233 1.77687,-0.22211 0.32122,-0.0803 0.57842,-0.32796 0.88844,-0.44422 0.28583,-0.10718 0.61541,-0.0856 0.88844,-0.22211 0.43769,-0.21884 0.89497,-0.8917 1.33266,-1.11055 0.41881,-0.2094 0.90477,-0.25404 1.33266,-0.44422 0.24393,-0.10841 0.40879,-0.37398 0.66632,-0.44421 0.57587,-0.15706 1.19323,-0.097 1.77688,-0.22211 0.45786,-0.0981 0.86986,-0.37302 1.33266,-0.44422 0.51223,-0.0788 1.04254,0.0788 1.55477,0 1.09123,-0.16789 2.1625,-0.63704 3.10953,-1.11055 0.17769,-0.0889 0.48864,0.0888 0.66633,0 1.37526,-0.68763 2.88259,-1.32782 3.99797,-2.44321 0.10471,-0.1047 -0.1047,-0.33951 0,-0.44422 0.11707,-0.11706 0.32716,-0.10504 0.44422,-0.22211 0.51714,-0.51713 -0.5805,-2.60133 -0.66633,-2.88742 -0.0851,-0.28366 0.10999,-0.61347 0,-0.88844 -0.0615,-0.15371 -0.37018,-0.074 -0.44422,-0.22211 -0.13845,-0.2769 0.004,-0.83965 -0.22211,-1.11055 -0.33514,-0.40217 -0.78913,-0.69731 -1.11054,-1.11055 -0.64108,-0.82423 -1.35539,-2.79237 -1.77688,-3.77586 -0.45891,-1.07079 -1.30207,-2.04122 -1.77688,-3.10953 -0.46768,-1.05229 -0.62908,-2.29421 -0.88844,-3.33165 -0.0647,-0.25897 -0.34507,-0.41848 -0.44421,-0.66633 -0.27762,-0.69403 -0.76195,-2.58662 -1.11055,-3.10953 -0.11616,-0.17424 -0.33648,-0.26466 -0.44422,-0.44422 -0.3116,-0.51933 -1.22857,-4.11599 -1.33266,-4.22008 -0.0523,-0.0523 -0.189,0.0662 -0.22211,0 -0.2014,-0.40281 -0.064,-0.91099 -0.22211,-1.33266 -0.11626,-0.31002 -0.35326,-0.57008 -0.44422,-0.88844 -0.16815,-0.58855 0.0614,-1.43204 -0.22211,-1.99899 -0.11938,-0.23876 -0.34508,-0.41847 -0.44422,-0.66632 -0.0761,-0.19037 -0.42805,-2.20782 -0.44422,-2.2211 C 206.06915,178.25501 205.00036,177.67345 204,177"
       id="path89" />
    <path
       style="fill:none;stroke:#000000;stroke-width:1px;stroke-linecap:butt;stroke-linejoin:miter;stroke-opacity:1"
       d="m 154,179 c 1.45303,-0.80762 2.88956,-1.64567 4.35909,-2.42286 0.29178,-0.15431 0.2193,0.16588 0.44422,0.22211 0.99725,0.24932 2.08617,0.37394 3.10953,0.66633 0.54215,0.1549 1.01586,0.50051 1.55477,0.66633 1.71666,0.5282 3.6514,0.77291 5.33063,1.33266 0.53114,0.17704 1.54198,1.32626 1.99899,1.55477 0.3853,0.19265 0.80052,-0.24293 1.11054,0.22211 0.0821,0.1232 -0.0662,0.31177 0,0.44421 0.14048,0.28095 0.59015,0.3616 0.66633,0.66633 0.0539,0.21548 -0.0993,0.46767 0,0.66633 -0.12227,0.72347 0.56163,0.0127 0.66633,0.22211 0.14229,0.28458 0.22057,1.10978 0.22211,1.11055 0.4148,0.2074 0.66633,-0.0337 0.66633,0.66633"
       id="path91" />
  </g>
</svg>
