<?xml version="1.0" standalone="no"?>
<!DOCTYPE svg PUBLIC "-//W3C//DTD SVG 1.1//EN" "http://www.w3.org/Graphics/SVG/1.1/DTD/svg11.dtd" >
<svg xmlns="http://www.w3.org/2000/svg" xmlns:xlink="http://www.w3.org/1999/xlink" version="1.1" viewBox="-10 0 266 256">
   <path fill="currentColor"
d="M137 -3h-1q16 10 9 15q-4 4 -7 11q-1 2 -1 3h2q4 -1 7 -3q7 -6 23 1q3 4 -1 5q-14 0 -20 1q-7 1 -15 2q-6 7 -17 18q17 -3 21 0q2 2 2 4q1 1 -1 1q-22 5 -38 11l-5 2q-1 0 2 -3q0 -2 -4 -1q-6 1 -20 3q-7 0 -2 -2q1 -1 6 -2q1 0 3 -1q2 0 4 -1q2 0 3 -1q-8 -5 -10 -17
q-26 1 -32 -4q-4 -1 1 -2q16 0 29 -2q0 -7 -3 -13q-1 -2 0 -2q0 -1 3 0q9 6 14 13q2 0 9 -1q18 -3 25 -4q13 -21 9 -27q-2 -3 -1 -4q2 -1 6 0zM120 34q-22 4 -30 7q-1 7 3 15q14 -4 27 -22zM129 78q-5 1 -16 4q-5 1 -7 1v14q4 -3 8 -3q0 -2 16 -12q2 -1 1 -2q0 -1 -2 -2z
M159 176q0 1 1 2q9 11 16 14q12 11 16 3q11 -15 22 -65q6 -33 -6 -31q-6 0 -20 3q-3 1 -5 1q-11 40 -26 67q5 1 5 4l-1 1q-1 2 -2 1zM174 107q-1 1 -3 2q-4 1 -6 2q-14 6 -18 2q-3 0 -1 -2q5 0 30 -11q4 -18 5 -26t-1 -11q-2 -1 -1 -1q0 -1 2 -2q12 5 10 9q-2 14 -6 27
q15 -3 25 -3q9 1 22 16q1 3 0 6l-1 1q-1 3 -3 2q-5 -1 -6 8q-15 66 -30 82q-3 5 -5 4q-2 0 -5 -3q-16 -15 -26 -32h-3q-30 38 -49 49q-5 1 -1 -1q28 -26 42 -49h-3q-58 8 -103 22q-10 5 -15 -2q-2 0 -2 -1t3 -2q7 0 18 -3q5 -1 11 -2q31 -8 44 -10q0 -2 -1 -9v-14q-2 0 -5 2
q-3 1 -5 1q-10 4 -19 -2q-3 -1 1 -2q6 1 29 -5v-19q-22 6 -27 1q-3 0 -2 -1q0 -1 3 -2q6 1 26 -5v-15q-5 1 -12 4q-2 0 -5 1q-5 2 -6 1t-1 -7q-5 -3 -12 -11q-5 -1 -1 -7q0 -1 3 0q5 9 22 15q5 1 12 -4q0 -10 -1 -14q-11 3 -22 4q-2 0 -2 -1t2 -2q16 -4 21 -5l-2 -4
q-1 -1 -1 -2q1 -1 3 -1q7 3 9 4q14 -1 25 -4q4 0 8 -1q1 0 2 -1q3 -4 15 6q1 2 1 3q-1 1 -4 1q-4 1 -3 1q-19 4 -32 11q2 1 6 2h7q2 1 2 3q-1 2 -3 2q-3 1 -6 1q-10 1 -18 3v16h3q6 -2 9 -4q-1 -4 16 0q3 5 -4 5q-12 1 -24 5q0 2 -1 7v11q7 -3 9 -5q0 -2 3 -2q8 0 15 4l-2 3
q-10 1 -25 7v16v7q6 -1 29 -3q0 -5 13 -5l4 1q16 -28 24 -62z" />
</svg>
