<?xml version="1.0" encoding="UTF-8" standalone="no"?>
<svg
   version="1.1"
   viewBox="-10 0 266 256"
   id="svg4"
   sodipodi:docname="wang.svg"
   inkscape:version="1.1 (c68e22c387, 2021-05-23)"
   xmlns:inkscape="http://www.inkscape.org/namespaces/inkscape"
   xmlns:sodipodi="http://sodipodi.sourceforge.net/DTD/sodipodi-0.dtd"
   xmlns="http://www.w3.org/2000/svg"
   xmlns:svg="http://www.w3.org/2000/svg">
  <defs
     id="defs8" />
  <sodipodi:namedview
     id="namedview6"
     pagecolor="#ffffff"
     bordercolor="#666666"
     borderopacity="1.0"
     inkscape:pageshadow="2"
     inkscape:pageopacity="0.0"
     inkscape:pagecheckerboard="0"
     showgrid="false"
     inkscape:zoom="3.1835938"
     inkscape:cx="96.588957"
     inkscape:cy="127.84294"
     inkscape:window-width="1920"
     inkscape:window-height="1001"
     inkscape:window-x="-9"
     inkscape:window-y="-9"
     inkscape:window-maximized="1"
     inkscape:current-layer="layer2" />
  <g
     inkscape:groupmode="layer"
     id="layer2"
     inkscape:label="Layer 2">
    <path
       style="fill:none;stroke:#000000;stroke-width:1px;stroke-linecap:butt;stroke-linejoin:miter;stroke-opacity:1"
       d="m 79.521472,58.42454 c 0.874156,-0.228451 2.685305,0.4558 3.455215,-0.314111 0.07404,-0.07404 -0.09365,-0.267285 0,-0.31411 0.79223,-0.396115 2.623788,0.138571 3.455215,0 0.426016,-0.071 4.882408,-1.113078 5.025768,-1.256442 0.074,-0.07404 -0.0936,-0.267285 0,-0.31411 0.3746,-0.187299 0.84332,0.06885 1.25644,0 2.31682,-0.386136 4.569,-1.310394 6.91043,-1.570552 0.52032,-0.05781 1.0572,0.10267 1.57055,0 0.5529,-0.110579 1.03049,-0.466201 1.57055,-0.628221 1.72432,-0.517295 3.67843,-0.702624 5.33988,-1.256442 0.37735,-0.125784 0.8752,-0.53291 1.25644,-0.628221 0.97613,-0.244031 2.15018,-0.148955 3.14111,-0.31411 0.60775,-0.101292 2.1156,-0.8572 2.51288,-0.942331 2.26146,-0.484598 4.65101,-0.377476 6.91043,-0.942332 0.64243,-0.160608 1.23823,-0.484569 1.88466,-0.628221 0.77294,-0.171764 1.75616,-0.06187 2.51289,-0.31411 0.14047,-0.04682 0.2094,-0.209407 0.31411,-0.31411 0.41881,-0.104704 0.82807,-0.260565 1.25644,-0.314111 2.37543,-0.296929 4.88695,-0.588559 7.22454,-1.256442 0.45023,-0.128637 0.79456,-0.551241 1.25644,-0.62822 1.51369,-0.252282 3.18283,-0.144241 4.71166,-0.314111 3.10419,-0.34491 5.58197,-1.370486 8.48098,-2.198773 0.41881,-0.104703 0.83763,-0.209407 1.25644,-0.31411 0.41881,0 0.8476,0.09085 1.25644,0 2.94003,-0.653339 0.29926,-0.447116 2.827,-1.570552 0.31878,-0.141682 3.2822,-0.581038 3.45521,-0.628221 0.9583,-0.261356 1.93856,-0.498112 2.82699,-0.942332 0.26489,-0.13244 0.35326,-0.518235 0.62822,-0.62822 0.48608,-0.19443 1.20037,0.370182 1.57056,0 0.31671,-0.316716 0.56207,-0.876188 0.94233,-1.256442 0.79345,-0.793451 6.40304,-1.932982 7.85276,-1.570552 1.38691,0.346727 4.34146,3.208418 5.65399,4.083435 0.61144,0.40763 1.33946,0.355624 1.88466,0.628221 0.0612,0.03062 0.24595,0.560065 0.31411,0.628221 0.17748,0.177483 1.02245,0.394231 1.25644,0.628221 0.16896,0.16896 0.28224,0.836895 0.62822,0.942331 C 183.26234,44.384087 184.64049,44.658487 186,45"
       id="path68" />
    <path
       style="fill:none;stroke:#000000;stroke-width:1px;stroke-linecap:butt;stroke-linejoin:miter;stroke-opacity:1"
       d="m 89,137 c 5.10794,0.50478 9.83899,-0.60872 14.70798,-1.30429 1.20539,-0.1722 2.56764,-0.0738 3.76932,-0.31411 1.2051,-0.24102 2.19475,-0.80228 3.45522,-0.94234 2.58529,-0.28725 5.37705,-0.32805 7.85276,-1.25644 1.25979,-0.47242 2.9454,-0.88773 4.08343,-1.57055 0.25394,-0.15237 0.35326,-0.51824 0.62822,-0.62822 0.29165,-0.11666 0.64031,0.0863 0.94233,0 1.43374,-0.40964 2.77389,-1.544 4.08344,-2.19877 0.71321,-0.35661 1.56085,-0.4639 2.19877,-0.94234 1.29096,-0.96821 2.47331,-2.16908 3.76933,-3.1411 0.3746,-0.28095 0.92534,-0.29712 1.25644,-0.62822 0.16555,-0.16555 0.12681,-0.48775 0.31411,-0.62822 0.26488,-0.19866 0.65841,-0.14376 0.94233,-0.31411 0.25394,-0.15237 0.37428,-0.47586 0.62822,-0.62822 0.66611,-0.39966 1.55011,-0.45584 2.19877,-0.94233 0.35538,-0.26654 0.54501,-0.74367 0.94234,-0.94234 0.19037,-0.0952 0.8107,-0.18248 0.94233,-0.31411 0.26694,-0.26694 0.36128,-0.67538 0.62822,-0.94233 0.14807,-0.14807 0.44092,0.0936 0.62822,0 1.31452,-0.65726 2.49288,-1.4329 3.76932,-2.19877 0.27861,-0.16716 2.4809,-1.61662 2.51289,-1.57055 0.9872,1.42182 1.83067,2.93824 2.74601,4.40736"
       id="path70" />
    <path
       style="fill:none;stroke:#000000;stroke-width:1px;stroke-linecap:butt;stroke-linejoin:miter;stroke-opacity:1"
       d="m 128,94 c -2.42031,4.473638 -1.34556,3.901642 -1.04785,7.77178 0.0482,0.62637 -0.10328,1.26499 0,1.88466 0.10886,0.65319 0.49835,1.23532 0.62822,1.88466 0.21842,1.09212 -0.27024,2.37427 0,3.45522 0.26694,1.06779 0.12962,2.0342 0.31411,3.1411 0.95673,5.74037 0.62822,11.71646 0.62822,17.59019 0,2.88286 0.26079,5.92643 0,8.79509 -0.13011,1.43124 -0.3803,0.95919 -0.62822,2.19877 -0.21981,1.09903 0.27146,2.36938 0,3.45522 -0.13675,0.54701 -0.50591,1.02013 -0.62822,1.57055 -0.19946,0.89756 0.15138,1.91872 0,2.82699 -0.45956,2.75732 -0.11555,-0.48014 -0.62822,1.57056 -0.0508,0.20315 0.0936,0.44092 0,0.62822 -0.0468,0.0936 -0.24008,-0.074 -0.31411,0 -0.14808,0.14807 0,0.41881 0,0.62822 0,1.34967 -0.30251,2.78057 -0.62822,4.08343 -0.13692,0.54768 -0.49131,1.02288 -0.62823,1.57055 -0.33197,1.32791 -0.29014,2.46495 -0.94233,3.76933 -0.2094,0.41881 0.20941,1.15174 0,1.57055 -0.0662,0.13244 -0.2094,0.20941 -0.31411,0.31411 -0.1047,0.31411 -0.16603,0.64619 -0.31411,0.94233 -0.2094,0.41882 -0.29712,0.92534 -0.62822,1.25645 -0.074,0.074 -0.35008,-0.0983 -0.31411,0 0.39092,1.06845 0.9636,2.06135 1.4454,3.09202"
       id="path72" />
    <path
       style="fill:none;stroke:#000000;stroke-width:1px;stroke-linecap:butt;stroke-linejoin:miter;stroke-opacity:1"
       d="m 32.719018,192.54969 c 2.908867,-1.13122 6.105552,-0.8774 9.109203,-1.57055 0.645245,-0.1489 1.235319,-0.49835 1.884662,-0.62822 0.410681,-0.0821 0.84019,0.0462 1.256442,0 1.463372,-0.1626 3.213188,-0.69259 4.711657,-0.94233 1.047034,-0.17451 0.261758,0.26176 1.570552,0 3.03268,-0.60654 -2.575494,-0.0359 1.570552,-0.62822 0.515376,-0.0736 1.615395,0.14584 2.198773,0 1.059743,-0.26494 2.04519,-0.98247 3.141104,-1.25644 0.987754,-0.24694 2.550042,-0.0851 3.455215,-0.62822 0.253943,-0.15237 0.36334,-0.49578 0.628221,-0.62823 0.468248,-0.23412 1.102304,0.23413 1.570552,0 0.209407,-0.1047 0.126811,-0.48774 0.31411,-0.62822 1.434388,-1.07579 4.447112,-1.64374 5.968099,-2.51288 0.257126,-0.14693 0.353256,-0.51823 0.62822,-0.62822 0.291645,-0.11666 0.650687,0.11666 0.942332,0 0.274964,-0.10999 0.363339,-0.49578 0.628221,-0.62822 1.987308,-0.99366 7.536595,-2.51288 9.737423,-2.51288 2.038002,0 -1.406964,0.11615 1.570552,-0.62823 0.507886,-0.12697 1.050237,0.0578 1.570552,0 1.777296,-0.19747 0.798091,-0.37073 2.512884,-0.94233 0.915781,-0.30526 1.898817,-0.36302 2.826996,-0.62822 1.3862,-0.39606 2.71713,-1.22897 4.08343,-1.57055 0.40631,-0.10158 0.84576,0.0821 1.25644,0 0.86167,-0.17233 1.68127,-0.77601 2.51289,-0.94233 4.10681,-0.82136 -3.11825,1.20504 2.19877,-0.31411 1.17708,-0.33631 1.88872,-1.07753 3.14111,-1.25644 1.46042,-0.20864 2.95473,-0.38776 4.39754,-0.62822 0.50777,-0.0846 2.28587,-0.88558 2.51288,-0.94234 0.8684,-0.21709 1.98009,0.28231 2.827,0 1.87295,-0.62431 3.7859,-1.26196 5.65399,-1.88466 0.19866,-0.0662 0.48014,0.14807 0.62822,0 0.074,-0.074 -0.074,-0.24007 0,-0.31411 0.35811,-0.35811 2.33071,0.0993 2.82699,0 0.74745,-0.14949 1.44689,-0.50291 2.19877,-0.62822 2.22152,-0.37025 4.71388,-0.39319 6.91043,-0.94233 0.54701,-0.13675 1.02355,-0.49147 1.57056,-0.62822 0.8805,-0.22013 1.92199,-0.18483 2.82699,-0.31411 0.85473,-0.12211 1.65815,-0.50612 2.51288,-0.62822 1.94575,-0.27797 4.03042,0.32294 5.9681,0 0.3266,-0.0544 0.61766,-0.24918 0.94233,-0.31411 0.33915,-0.0678 1.26285,0.15385 1.57055,0 0.0937,-0.0468 -0.0936,-0.26729 0,-0.31411 1.07394,-0.53697 9.32507,0.31411 10.99387,0.31411 4.23763,0 8.76708,-0.37113 12.87853,0.31411 0.41311,0.0688 0.8476,-0.0909 1.25644,0 0.55042,0.12231 1.02013,0.5059 1.57055,0.62822 0.81768,0.18171 1.68368,-0.11846 2.51288,0 0.65555,0.0936 1.22758,0.54608 1.88467,0.62822 1.03895,0.12987 2.09926,-0.10418 3.1411,0 2.09207,0.20921 4.17835,0.75107 6.28221,0.94233 0.41709,0.0379 0.85374,-0.11506 1.25644,0 0.36299,0.10371 0.57934,0.52451 0.94233,0.62822 0.19002,0.0543 1.87303,-0.0407 2.19878,0 1.25478,0.15685 2.02473,0.66324 3.1411,0.94233 0.95754,0.23939 2.17248,-0.10762 3.1411,0 0.76631,0.0851 4.26736,0.68953 5.02577,0.94233 0.10438,0.0348 1.18371,0.55549 1.25644,0.62822 0.074,0.074 -0.0972,0.27523 0,0.31411 2.89714,1.15886 0.25775,-0.65953 3.14111,0.94234 0.45763,0.25424 0.78819,0.7082 1.25644,0.94233 0.70734,0.35367 1.38831,-0.2262 2.19877,0.31411 0.0871,0.0581 -0.074,0.24007 0,0.31411 0.14808,0.14807 0.51207,-0.17424 0.62822,0 0.18367,0.27549 0.14376,0.65841 0.31411,0.94233 0.32891,0.54818 1.10365,0.90626 1.57056,1.25644 0.91996,0.68998 1.4412,1.75532 2.19877,2.51288 0.95843,0.95843 1.89014,0.82108 2.82699,1.57056 0.34688,0.2775 0.62822,0.62822 0.94233,0.94233 0.52352,0.41881 1.03421,0.85418 1.57056,1.25644 0.40138,0.76185 1.30025,0.55273 1.88466,0.94233 2.91874,1.94583 -0.21074,0.10337 1.25644,1.57055 0.10451,0.10451 1.19305,-0.0211 1.25644,0 0.71103,0.23701 1.18079,1.33593 1.88466,1.57056 0.19867,0.0662 0.45399,-0.11616 0.62823,0 0.1948,0.12986 0.14856,0.46267 0.31411,0.62822 0.14807,0.14807 0.48014,-0.14808 0.62822,0 0.16555,0.16555 0.18424,0.43341 0.31411,0.62822 0.34103,0.51154 1.62031,0.62142 1.57055,0.62822 -0.63914,0.0873 -1.2818,0.14642 -1.9227,0.21963"
       id="path78" />
  </g>
</svg>
